<svg width="153" height="185" viewBox="0 0 153 185" fill="none" xmlns="http://www.w3.org/2000/svg">
<mask id="path-1-outside-1_3_2" maskUnits="userSpaceOnUse" x="-1" y="174" width="152" height="12" fill="black">
<rect fill="white" x="-1" y="174" width="152" height="12"/>
<path d="M0.472 181.935H0.8968C1.0738 182.997 1.9116 183.823 2.8438 183.823C3.9648 183.823 4.8734 182.985 4.8734 181.959C4.8734 179.587 0.6844 179.988 0.6844 177.404C0.6844 176.2 1.652 175.351 2.8438 175.351C4.0238 175.351 4.9796 176.011 5.1094 177.274H4.7082C4.6138 176.165 3.658 175.705 2.8438 175.705C1.888 175.705 1.121 176.46 1.121 177.392C1.121 179.681 5.31 179.221 5.31 181.935C5.31 183.174 4.2716 184.177 2.8438 184.177C1.5694 184.177 0.6844 183.186 0.472 181.935ZM29.0662 184H24.7828V175.516H29.0662V175.87H25.184V179.54H28.9364V179.894H25.184V183.646H29.0662V184ZM48.5349 184V175.516H50.8595C52.2991 175.516 53.4673 176.66 53.4673 178.076C53.4673 179.528 52.4053 180.708 50.8595 180.708H50.6707L52.9717 184H52.5233L49.9981 180.354H50.8005C52.0277 180.354 53.0307 179.351 53.0307 178.124C53.0307 176.885 52.0395 175.87 50.8005 175.87H48.9361V184H48.5349ZM72.2271 175.516H72.7345L75.6255 183.563L78.5165 175.516H79.0239L75.8969 184H75.3541L72.2271 175.516ZM98.5376 184H98.1364V175.516H98.5376V184ZM118.271 179.764C118.271 182.006 120.017 183.823 122.259 183.823C123.557 183.823 124.713 183.198 125.445 182.23H125.941C125.138 183.41 123.793 184.177 122.259 184.177C119.816 184.177 117.834 182.195 117.834 179.764C117.834 177.333 119.816 175.351 122.259 175.351C123.864 175.351 125.28 176.2 126.059 177.475H125.563C124.843 176.413 123.628 175.705 122.259 175.705C120.017 175.705 118.271 177.522 118.271 179.764ZM149.636 184H145.353V175.516H149.636V175.87H145.754V179.54H149.506V179.894H145.754V183.646H149.636V184Z"/>
</mask>
<path d="M0.472 181.935H0.8968C1.0738 182.997 1.9116 183.823 2.8438 183.823C3.9648 183.823 4.8734 182.985 4.8734 181.959C4.8734 179.587 0.6844 179.988 0.6844 177.404C0.6844 176.2 1.652 175.351 2.8438 175.351C4.0238 175.351 4.9796 176.011 5.1094 177.274H4.7082C4.6138 176.165 3.658 175.705 2.8438 175.705C1.888 175.705 1.121 176.46 1.121 177.392C1.121 179.681 5.31 179.221 5.31 181.935C5.31 183.174 4.2716 184.177 2.8438 184.177C1.5694 184.177 0.6844 183.186 0.472 181.935ZM29.0662 184H24.7828V175.516H29.0662V175.87H25.184V179.54H28.9364V179.894H25.184V183.646H29.0662V184ZM48.5349 184V175.516H50.8595C52.2991 175.516 53.4673 176.66 53.4673 178.076C53.4673 179.528 52.4053 180.708 50.8595 180.708H50.6707L52.9717 184H52.5233L49.9981 180.354H50.8005C52.0277 180.354 53.0307 179.351 53.0307 178.124C53.0307 176.885 52.0395 175.87 50.8005 175.87H48.9361V184H48.5349ZM72.2271 175.516H72.7345L75.6255 183.563L78.5165 175.516H79.0239L75.8969 184H75.3541L72.2271 175.516ZM98.5376 184H98.1364V175.516H98.5376V184ZM118.271 179.764C118.271 182.006 120.017 183.823 122.259 183.823C123.557 183.823 124.713 183.198 125.445 182.23H125.941C125.138 183.41 123.793 184.177 122.259 184.177C119.816 184.177 117.834 182.195 117.834 179.764C117.834 177.333 119.816 175.351 122.259 175.351C123.864 175.351 125.28 176.2 126.059 177.475H125.563C124.843 176.413 123.628 175.705 122.259 175.705C120.017 175.705 118.271 177.522 118.271 179.764ZM149.636 184H145.353V175.516H149.636V175.87H145.754V179.54H149.506V179.894H145.754V183.646H149.636V184Z" fill="black"/>
<path d="M0.472 181.935V181.435H-0.120063L-0.0209432 182.019L0.472 181.935ZM0.8968 181.935L1.39 181.853L1.32036 181.435H0.8968V181.935ZM5.1094 177.274V177.774H5.66344L5.60678 177.223L5.1094 177.274ZM4.7082 177.274L4.21 177.316L4.24895 177.774H4.7082V177.274ZM0.472 182.435H0.8968V181.435H0.472V182.435ZM0.403603 182.017C0.61037 183.258 1.60884 184.323 2.8438 184.323V183.323C2.21436 183.323 1.53723 182.736 1.39 181.853L0.403603 182.017ZM2.8438 184.323C4.2007 184.323 5.3734 183.3 5.3734 181.959H4.3734C4.3734 182.67 3.7289 183.323 2.8438 183.323V184.323ZM5.3734 181.959C5.3734 181.187 5.02037 180.638 4.54409 180.23C4.09367 179.844 3.50504 179.563 3.00099 179.313C2.46635 179.048 2.00941 178.811 1.67824 178.505C1.37066 178.221 1.1844 177.888 1.1844 177.404H0.1844C0.1844 178.211 0.521765 178.798 0.999619 179.239C1.45389 179.659 2.0442 179.955 2.55681 180.209C3.10001 180.478 3.55863 180.703 3.89365 180.989C4.20281 181.254 4.3734 181.544 4.3734 181.959H5.3734ZM1.1844 177.404C1.1844 176.511 1.89246 175.851 2.8438 175.851V174.851C1.41154 174.851 0.1844 175.89 0.1844 177.404H1.1844ZM2.8438 175.851C3.34287 175.851 3.75993 175.99 4.05756 176.229C4.34848 176.462 4.55981 176.817 4.61202 177.325L5.60678 177.223C5.5292 176.468 5.19772 175.861 4.6833 175.449C4.17557 175.042 3.52473 174.851 2.8438 174.851V175.851ZM5.1094 176.774H4.7082V177.774H5.1094V176.774ZM5.2064 177.232C5.1462 176.524 4.80292 176.002 4.33799 175.668C3.88631 175.342 3.33692 175.205 2.8438 175.205V176.205C3.16488 176.205 3.5005 176.297 3.75386 176.479C3.99398 176.652 4.1758 176.914 4.21 177.316L5.2064 177.232ZM2.8438 175.205C1.62092 175.205 0.621 176.175 0.621 177.392H1.621C1.621 176.745 2.15508 176.205 2.8438 176.205V175.205ZM0.621 177.392C0.621 178.151 0.98218 178.683 1.45899 179.073C1.90798 179.44 2.49723 179.71 2.99646 179.954C3.52711 180.212 3.98185 180.451 4.31051 180.764C4.61632 181.056 4.81 181.409 4.81 181.935H5.81C5.81 181.104 5.48005 180.497 5.00042 180.04C4.54366 179.605 3.95115 179.306 3.43454 179.055C2.88652 178.788 2.42852 178.574 2.09207 178.299C1.78344 178.046 1.621 177.777 1.621 177.392H0.621ZM4.81 181.935C4.81 182.862 4.03239 183.677 2.8438 183.677V184.677C4.51081 184.677 5.81 183.486 5.81 181.935H4.81ZM2.8438 183.677C1.88004 183.677 1.14882 182.934 0.964943 181.851L-0.0209432 182.019C0.219977 183.437 1.25876 184.677 2.8438 184.677V183.677ZM29.0662 184V184.5H29.5662V184H29.0662ZM24.7828 184H24.2828V184.5H24.7828V184ZM24.7828 175.516V175.016H24.2828V175.516H24.7828ZM29.0662 175.516H29.5662V175.016H29.0662V175.516ZM29.0662 175.87V176.37H29.5662V175.87H29.0662ZM25.184 175.87V175.37H24.684V175.87H25.184ZM25.184 179.54H24.684V180.04H25.184V179.54ZM28.9364 179.54H29.4364V179.04H28.9364V179.54ZM28.9364 179.894V180.394H29.4364V179.894H28.9364ZM25.184 179.894V179.394H24.684V179.894H25.184ZM25.184 183.646H24.684V184.146H25.184V183.646ZM29.0662 183.646H29.5662V183.146H29.0662V183.646ZM29.0662 183.5H24.7828V184.5H29.0662V183.5ZM25.2828 184V175.516H24.2828V184H25.2828ZM24.7828 176.016H29.0662V175.016H24.7828V176.016ZM28.5662 175.516V175.87H29.5662V175.516H28.5662ZM29.0662 175.37H25.184V176.37H29.0662V175.37ZM24.684 175.87V179.54H25.684V175.87H24.684ZM25.184 180.04H28.9364V179.04H25.184V180.04ZM28.4364 179.54V179.894H29.4364V179.54H28.4364ZM28.9364 179.394H25.184V180.394H28.9364V179.394ZM24.684 179.894V183.646H25.684V179.894H24.684ZM25.184 184.146H29.0662V183.146H25.184V184.146ZM28.5662 183.646V184H29.5662V183.646H28.5662ZM48.5349 184H48.0349V184.5H48.5349V184ZM48.5349 175.516V175.016H48.0349V175.516H48.5349ZM50.6707 180.708V180.208H49.7112L50.2609 180.994L50.6707 180.708ZM52.9717 184V184.5H53.9312L53.3815 183.714L52.9717 184ZM52.5233 184L52.1122 184.285L52.2614 184.5H52.5233V184ZM49.9981 180.354V179.854H49.0436L49.587 180.638L49.9981 180.354ZM48.9361 175.87V175.37H48.4361V175.87H48.9361ZM48.9361 184V184.5H49.4361V184H48.9361ZM49.0349 184V175.516H48.0349V184H49.0349ZM48.5349 176.016H50.8595V175.016H48.5349V176.016ZM50.8595 176.016C52.0319 176.016 52.9673 176.945 52.9673 178.076H53.9673C53.9673 176.375 52.5663 175.016 50.8595 175.016V176.016ZM52.9673 178.076C52.9673 179.27 52.1115 180.208 50.8595 180.208V181.208C52.6991 181.208 53.9673 179.786 53.9673 178.076H52.9673ZM50.8595 180.208H50.6707V181.208H50.8595V180.208ZM50.2609 180.994L52.5619 184.286L53.3815 183.714L51.0805 180.421L50.2609 180.994ZM52.9717 183.5H52.5233V184.5H52.9717V183.5ZM52.9343 183.715L50.4091 180.069L49.587 180.638L52.1122 184.285L52.9343 183.715ZM49.9981 180.854H50.8005V179.854H49.9981V180.854ZM50.8005 180.854C52.3038 180.854 53.5307 179.627 53.5307 178.124H52.5307C52.5307 179.075 51.7515 179.854 50.8005 179.854V180.854ZM53.5307 178.124C53.5307 176.615 52.3225 175.37 50.8005 175.37V176.37C51.7565 176.37 52.5307 177.154 52.5307 178.124H53.5307ZM50.8005 175.37H48.9361V176.37H50.8005V175.37ZM48.4361 175.87V184H49.4361V175.87H48.4361ZM48.9361 183.5H48.5349V184.5H48.9361V183.5ZM72.2271 175.516V175.016H71.5099L71.7579 175.689L72.2271 175.516ZM72.7345 175.516L73.205 175.347L73.0861 175.016H72.7345V175.516ZM75.6255 183.563L75.1549 183.732L75.6255 185.042L76.096 183.732L75.6255 183.563ZM78.5165 175.516V175.016H78.1648L78.0459 175.347L78.5165 175.516ZM79.0239 175.516L79.493 175.689L79.741 175.016H79.0239V175.516ZM75.8969 184V184.5H76.2455L76.366 184.173L75.8969 184ZM75.3541 184L74.8849 184.173L75.0055 184.5H75.3541V184ZM72.2271 176.016H72.7345V175.016H72.2271V176.016ZM72.2639 175.685L75.1549 183.732L76.096 183.394L73.205 175.347L72.2639 175.685ZM76.096 183.732L78.987 175.685L78.0459 175.347L75.1549 183.394L76.096 183.732ZM78.5165 176.016H79.0239V175.016H78.5165V176.016ZM78.5547 175.343L75.4277 183.827L76.366 184.173L79.493 175.689L78.5547 175.343ZM75.8969 183.5H75.3541V184.5H75.8969V183.5ZM75.8232 183.827L72.6962 175.343L71.7579 175.689L74.8849 184.173L75.8232 183.827ZM98.5376 184V184.5H99.0376V184H98.5376ZM98.1364 184H97.6364V184.5H98.1364V184ZM98.1364 175.516V175.016H97.6364V175.516H98.1364ZM98.5376 175.516H99.0376V175.016H98.5376V175.516ZM98.5376 183.5H98.1364V184.5H98.5376V183.5ZM98.6364 184V175.516H97.6364V184H98.6364ZM98.1364 176.016H98.5376V175.016H98.1364V176.016ZM98.0376 175.516V184H99.0376V175.516H98.0376ZM125.445 182.23V181.73H125.196L125.046 181.928L125.445 182.23ZM125.941 182.23L126.354 182.511L126.885 181.73H125.941V182.23ZM126.059 177.475V177.975H126.95L126.485 177.214L126.059 177.475ZM125.563 177.475L125.149 177.755L125.298 177.975H125.563V177.475ZM117.771 179.764C117.771 182.27 119.73 184.323 122.259 184.323V183.323C120.305 183.323 118.771 181.741 118.771 179.764H117.771ZM122.259 184.323C123.722 184.323 125.023 183.618 125.844 182.532L125.046 181.928C124.404 182.777 123.393 183.323 122.259 183.323V184.323ZM125.445 182.73H125.941V181.73H125.445V182.73ZM125.527 181.949C124.814 182.997 123.621 183.677 122.259 183.677V184.677C123.965 184.677 125.462 183.823 126.354 182.511L125.527 181.949ZM122.259 183.677C120.092 183.677 118.334 181.918 118.334 179.764H117.334C117.334 182.472 119.541 184.677 122.259 184.677V183.677ZM118.334 179.764C118.334 177.61 120.092 175.851 122.259 175.851V174.851C119.541 174.851 117.334 177.056 117.334 179.764H118.334ZM122.259 175.851C123.684 175.851 124.941 176.605 125.632 177.735L126.485 177.214C125.619 175.795 124.043 174.851 122.259 174.851V175.851ZM126.059 176.975H125.563V177.975H126.059V176.975ZM125.977 177.194C125.17 176.004 123.804 175.205 122.259 175.205V176.205C123.452 176.205 124.516 176.822 125.149 177.755L125.977 177.194ZM122.259 175.205C119.73 175.205 117.771 177.257 117.771 179.764H118.771C118.771 177.786 120.305 176.205 122.259 176.205V175.205ZM149.636 184V184.5H150.136V184H149.636ZM145.353 184H144.853V184.5H145.353V184ZM145.353 175.516V175.016H144.853V175.516H145.353ZM149.636 175.516H150.136V175.016H149.636V175.516ZM149.636 175.87V176.37H150.136V175.87H149.636ZM145.754 175.87V175.37H145.254V175.87H145.754ZM145.754 179.54H145.254V180.04H145.754V179.54ZM149.506 179.54H150.006V179.04H149.506V179.54ZM149.506 179.894V180.394H150.006V179.894H149.506ZM145.754 179.894V179.394H145.254V179.894H145.754ZM145.754 183.646H145.254V184.146H145.754V183.646ZM149.636 183.646H150.136V183.146H149.636V183.646ZM149.636 183.5H145.353V184.5H149.636V183.5ZM145.853 184V175.516H144.853V184H145.853ZM145.353 176.016H149.636V175.016H145.353V176.016ZM149.136 175.516V175.87H150.136V175.516H149.136ZM149.636 175.37H145.754V176.37H149.636V175.37ZM145.254 175.87V179.54H146.254V175.87H145.254ZM145.754 180.04H149.506V179.04H145.754V180.04ZM149.006 179.54V179.894H150.006V179.54H149.006ZM149.506 179.394H145.754V180.394H149.506V179.394ZM145.254 179.894V183.646H146.254V179.894H145.254ZM145.754 184.146H149.636V183.146H145.754V184.146ZM149.136 183.646V184H150.136V183.646H149.136Z" fill="black" mask="url(#path-1-outside-1_3_2)"/>
<path d="M22.8438 132L18.4056 143.636C13.8368 155.534 7.83217 162.463 0 164.293V169H56C38.8998 164.555 25.5851 150.042 22.8438 132Z" fill="#0066FF"/>
<path d="M133.641 149.064L76.2533 0H72.4274L50 58.2444C55.0132 50.687 59.8945 43.9113 64.7757 37.9175C64.6438 42.9992 65.3034 54.0748 71.7678 65.8019C77.8364 76.6168 85.8839 82.741 90.2375 85.6076C104.09 93.4256 113.456 108.15 113.456 125.089C113.456 146.197 98.9446 163.788 79.2876 169H150V164.309C142.876 163.918 137.467 158.837 133.641 149.064Z" fill="#0066FF"/>
</svg>
