<svg width="206" height="184" viewBox="0 0 206 184" fill="none" xmlns="http://www.w3.org/2000/svg">
<path d="M22.8438 132L18.4056 143.636C13.8368 155.534 7.83217 162.463 0 164.293V169H56C38.8998 164.555 25.5851 150.042 22.8438 132Z" fill="#0066FF"/>
<path fill-rule="evenodd" clip-rule="evenodd" d="M119.912 113.402L133.641 149.064C137.467 158.837 142.876 163.918 150 164.309V169H79.2876C98.9446 163.788 113.456 146.197 113.456 125.089C113.456 108.15 104.09 93.4256 90.2375 85.6076C85.8839 82.741 77.8364 76.6168 71.7678 65.8019C65.3034 54.0748 64.6438 42.9992 64.7757 37.9175C59.8945 43.9113 55.0132 50.687 50 58.2444L72.4275 0H76.2533L119.092 111.273L117.055 115.831L107.732 94.9H105.884L116.18 118H117.863L119.912 113.402ZM119.912 113.402L119.092 111.273L126.41 94.9H128.159L119.912 113.402ZM20.214 117.307C21.754 117.879 23.382 118.165 25.098 118.165C27.012 118.165 28.574 117.89 29.784 117.34C31.016 116.768 31.929 116.02 32.523 115.096C33.117 114.15 33.414 113.138 33.414 112.06C33.414 110.872 33.15 109.904 32.622 109.156C32.094 108.408 31.401 107.814 30.543 107.374C29.685 106.934 28.75 106.582 27.738 106.318C26.726 106.032 25.703 105.768 24.669 105.526C23.635 105.284 22.689 104.987 21.831 104.635C20.973 104.283 20.28 103.81 19.752 103.216C19.246 102.622 18.993 101.83 18.993 100.84C18.993 99.982 19.224 99.212 19.686 98.53C20.148 97.826 20.863 97.265 21.831 96.847C22.799 96.429 24.02 96.22 25.494 96.22C26.528 96.22 27.595 96.385 28.695 96.715C29.817 97.023 30.862 97.507 31.83 98.167L32.457 96.814C31.577 96.176 30.51 95.67 29.256 95.296C28.024 94.922 26.77 94.735 25.494 94.735C23.602 94.735 22.051 95.021 20.841 95.593C19.631 96.165 18.74 96.913 18.168 97.837C17.596 98.761 17.31 99.773 17.31 100.873C17.31 102.083 17.563 103.073 18.069 103.843C18.597 104.591 19.29 105.185 20.148 105.625C21.006 106.065 21.952 106.428 22.986 106.714C24.02 106.978 25.043 107.231 26.055 107.473C27.067 107.715 28.002 108.012 28.86 108.364C29.718 108.716 30.411 109.189 30.939 109.783C31.467 110.377 31.731 111.169 31.731 112.159C31.731 112.995 31.489 113.754 31.005 114.436C30.543 115.118 29.817 115.668 28.827 116.086C27.859 116.482 26.605 116.68 25.065 116.68C23.525 116.68 22.062 116.405 20.676 115.855C19.312 115.283 18.234 114.59 17.442 113.776L16.683 115.03C17.519 115.954 18.696 116.713 20.214 117.307ZM49.0684 107.011V116.482H63.3244V118H47.3854V94.9H62.8294V96.418H49.0684V105.526H61.3774V107.011H49.0684ZM77.7106 94.9V118H79.3936V110.443H85.9936C86.7827 110.443 87.5261 110.392 88.2238 110.29L93.7486 118H95.6626L89.8771 109.926C90.2611 109.81 90.6276 109.674 90.9766 109.519C92.3626 108.881 93.4296 107.99 94.1776 106.846C94.9256 105.68 95.2996 104.294 95.2996 102.688C95.2996 101.038 94.9256 99.641 94.1776 98.497C93.4296 97.331 92.3626 96.44 90.9766 95.824C89.5906 95.208 87.9296 94.9 85.9936 94.9H77.7106ZM79.3936 108.958H85.9936C88.4796 108.958 90.3606 108.408 91.6366 107.308C92.9346 106.208 93.5836 104.668 93.5836 102.688C93.5836 100.686 92.9346 99.146 91.6366 98.068C90.3606 96.968 88.4796 96.418 85.9936 96.418H79.3936V108.958ZM140.133 94.9V118H141.816V94.9H140.133ZM163.099 117.307C164.573 117.879 166.168 118.165 167.884 118.165C169.512 118.165 171.03 117.901 172.438 117.373C173.868 116.823 175.089 116.009 176.101 114.931L175.045 113.842C174.055 114.832 172.955 115.547 171.745 115.987C170.557 116.405 169.292 116.614 167.95 116.614C166.476 116.614 165.101 116.361 163.825 115.855C162.571 115.349 161.471 114.634 160.525 113.71C159.601 112.786 158.875 111.708 158.347 110.476C157.841 109.244 157.588 107.902 157.588 106.45C157.588 104.998 157.841 103.656 158.347 102.424C158.875 101.192 159.601 100.114 160.525 99.19C161.471 98.266 162.571 97.551 163.825 97.045C165.101 96.539 166.476 96.286 167.95 96.286C169.292 96.286 170.557 96.506 171.745 96.946C172.955 97.364 174.055 98.057 175.045 99.025L176.101 97.936C175.089 96.858 173.868 96.055 172.438 95.527C171.03 94.999 169.512 94.735 167.884 94.735C166.168 94.735 164.584 95.032 163.132 95.626C161.68 96.198 160.404 97.012 159.304 98.068C158.226 99.124 157.39 100.367 156.796 101.797C156.202 103.205 155.905 104.756 155.905 106.45C155.905 108.144 156.202 109.706 156.796 111.136C157.39 112.544 158.226 113.776 159.304 114.832C160.382 115.888 161.647 116.713 163.099 117.307ZM191.671 107.011V116.482H205.927V118H189.988V94.9H205.432V96.418H191.671V105.526H203.98V107.011H191.671Z" fill="#0066FF"/>
</svg>
